<svg width="687" height="256" viewBox="0 0 687 256" fill="none" xmlns="http://www.w3.org/2000/svg">
<mask id="path-1-inside-1_56_75" fill="white">
<path d="M0.202199 5.124H70.8142V26.079H28.2692V41.065H64.8452V61.131H28.2692V92.5H0.202199V5.124ZM131.773 92.5L130.122 82.34C127.498 85.9807 124.026 88.8593 119.708 90.976C115.475 93.008 110.988 94.024 106.246 94.024C98.4569 94.024 92.6149 91.865 88.7202 87.547C84.8255 83.229 82.8782 77.006 82.8782 68.878V25.444H108.151V65.83C108.151 68.7087 108.871 71.037 110.31 72.815C111.834 74.5083 113.951 75.355 116.66 75.355C119.793 75.355 122.333 74.339 124.28 72.307C126.228 70.275 127.201 67.7773 127.201 64.814V25.444H152.474V92.5H131.773ZM168.729 92.5V0.424997H194.002V92.5H168.729ZM211.021 92.5V0.424997H236.294V92.5H211.021ZM333.197 3.59999C344.373 3.59999 353.56 5.88599 360.756 10.458C367.953 14.9453 371.636 21.634 371.805 30.524V32.048H345.516V31.54C345.516 29 344.585 26.8833 342.722 25.19C340.86 23.4967 338.023 22.65 334.213 22.65C330.488 22.65 327.609 23.2003 325.577 24.301C323.63 25.4017 322.656 26.7563 322.656 28.365C322.656 30.651 324.011 32.3443 326.72 33.445C329.43 34.5457 333.79 35.6887 339.801 36.874C346.829 38.3133 352.586 39.8373 357.073 41.446C361.645 42.97 365.625 45.51 369.011 49.066C372.398 52.622 374.134 57.448 374.218 63.544C374.218 73.8733 370.705 81.5357 363.677 86.531C356.735 91.5263 347.421 94.024 335.737 94.024C322.106 94.024 311.48 91.738 303.86 87.166C296.325 82.594 292.557 74.5083 292.557 62.909H319.1C319.1 67.3117 320.243 70.275 322.529 71.799C324.815 73.2383 328.371 73.958 333.197 73.958C336.753 73.958 339.674 73.577 341.96 72.815C344.331 72.053 345.516 70.4867 345.516 68.116C345.516 65.9993 344.204 64.433 341.579 63.417C339.039 62.3163 334.848 61.1733 329.006 59.988C321.894 58.464 316.01 56.8977 311.353 55.289C306.697 53.5957 302.633 50.844 299.161 47.034C295.69 43.224 293.954 38.0593 293.954 31.54C293.954 21.9727 297.637 14.9453 305.003 10.458C312.454 5.88599 321.852 3.59999 333.197 3.59999ZM431.074 25.444V42.589H416.85V68.116C416.85 71.164 417.358 73.4077 418.374 74.847C419.39 76.2017 421.252 76.879 423.962 76.879H431.074V91.738C429.042 92.4153 426.417 92.9657 423.2 93.389C419.982 93.8123 417.188 94.024 414.818 94.024C407.367 94.024 401.61 92.6693 397.546 89.96C393.566 87.2507 391.577 82.6363 391.577 76.117V42.589H382.179V25.444H392.593L398.054 5.124H416.85V25.444H431.074ZM475.947 23.92C486.192 23.92 494.532 25.6557 500.966 29.127C507.401 32.5137 510.618 38.0593 510.618 45.764V71.926C510.618 73.3653 510.957 74.5507 511.634 75.482C512.312 76.4133 513.328 76.879 514.682 76.879H519.254V91.484C519 91.6533 518.323 91.9497 517.222 92.373C516.206 92.7117 514.725 93.0503 512.777 93.389C510.83 93.8123 508.586 94.024 506.046 94.024C501.136 94.024 497.072 93.3043 493.854 91.865C490.722 90.341 488.563 88.2667 487.377 85.642C484.16 88.182 480.562 90.214 476.582 91.738C472.603 93.262 467.946 94.024 462.612 94.024C446.864 94.024 438.99 87.7587 438.99 75.228C438.99 68.7087 440.726 63.7557 444.197 60.369C447.753 56.8977 452.833 54.527 459.437 53.257C466.041 51.987 474.677 51.352 485.345 51.352V48.05C485.345 45.4253 484.414 43.4357 482.551 42.081C480.773 40.7263 478.445 40.049 475.566 40.049C472.942 40.049 470.656 40.5147 468.708 41.446C466.846 42.3773 465.914 43.859 465.914 45.891V46.399H441.022C440.938 45.9757 440.895 45.383 440.895 44.621C440.895 38.271 443.901 33.2333 449.912 29.508C456.008 25.7827 464.687 23.92 475.947 23.92ZM485.345 63.29C478.149 63.29 472.815 64.0943 469.343 65.703C465.957 67.227 464.263 69.3013 464.263 71.926C464.263 76.1593 467.142 78.276 472.899 78.276C476.201 78.276 479.08 77.387 481.535 75.609C484.075 73.831 485.345 71.6297 485.345 69.005V63.29ZM562.179 23.92C573.186 23.92 582.076 26.2907 588.849 31.032C595.707 35.6887 599.136 42.843 599.136 52.495H574.625C574.625 44.875 570.477 41.065 562.179 41.065C553.882 41.065 549.733 45.8487 549.733 55.416V62.655C549.733 72.1377 554.051 76.879 562.687 76.879C571.323 76.879 575.641 72.9843 575.641 65.195H599.136C599.136 74.9317 595.707 82.1707 588.849 86.912C582.076 91.6533 573.186 94.024 562.179 94.024C550.411 94.024 541.182 91.0607 534.493 85.134C527.805 79.2073 524.46 70.4867 524.46 58.972C524.46 47.4573 527.805 38.7367 534.493 32.81C541.182 26.8833 550.411 23.92 562.179 23.92ZM656.844 25.444H686.308L661.543 52.495L686.943 92.5H658.241L644.144 69.513L635.381 78.022V92.5H610.108V0.297999H635.381V51.098L656.844 25.444ZM40.2186 143.124C70.7833 143.124 86.0656 157.687 86.0656 186.812C86.0656 215.937 70.7833 230.5 40.2186 230.5H2.37261V143.124H40.2186ZM30.4396 209.545H39.7106C51.4793 209.545 57.3636 203.237 57.3636 190.622V183.002C57.3636 170.387 51.4793 164.079 39.7106 164.079H30.4396V209.545ZM134.112 161.92C146.389 161.92 155.745 164.799 162.179 170.556C168.699 176.313 171.958 185.119 171.958 196.972V201.29H121.666C121.666 206.116 122.725 209.757 124.841 212.212C127.043 214.667 130.472 215.895 135.128 215.895C139.362 215.895 142.452 215.006 144.399 213.228C146.431 211.45 147.447 209.079 147.447 206.116H171.958C171.958 214.244 168.868 220.594 162.687 225.166C156.507 229.738 147.49 232.024 135.636 232.024C123.19 232.024 113.538 229.145 106.68 223.388C99.8223 217.546 96.3933 208.741 96.3933 196.972C96.3933 185.457 99.7376 176.737 106.426 170.81C113.115 164.883 122.344 161.92 134.112 161.92ZM135.128 178.049C127.17 178.049 122.725 181.817 121.793 189.352H146.431C146.431 185.881 145.415 183.129 143.383 181.097C141.436 179.065 138.684 178.049 135.128 178.049ZM198.581 230.5L173.181 163.444H200.359L212.678 205.227H213.567L225.886 163.444H250.778L225.124 230.5H198.581ZM289.762 161.92C302.038 161.92 311.394 164.799 317.829 170.556C324.348 176.313 327.608 185.119 327.608 196.972V201.29H277.316C277.316 206.116 278.374 209.757 280.491 212.212C282.692 214.667 286.121 215.895 290.778 215.895C295.011 215.895 298.101 215.006 300.049 213.228C302.081 211.45 303.097 209.079 303.097 206.116H327.608C327.608 214.244 324.517 220.594 318.337 225.166C312.156 229.738 303.139 232.024 291.286 232.024C278.84 232.024 269.188 229.145 262.33 223.388C255.472 217.546 252.043 208.741 252.043 196.972C252.043 185.457 255.387 176.737 262.076 170.81C268.764 164.883 277.993 161.92 289.762 161.92ZM290.778 178.049C282.819 178.049 278.374 181.817 277.443 189.352H302.081C302.081 185.881 301.065 183.129 299.033 181.097C297.085 179.065 294.334 178.049 290.778 178.049ZM340.688 230.5V138.425H365.961V230.5H340.688ZM416.762 161.92C428.53 161.92 437.759 164.926 444.448 170.937C451.221 176.864 454.608 185.542 454.608 196.972C454.608 208.402 451.221 217.123 444.448 223.134C437.759 229.061 428.53 232.024 416.762 232.024C404.993 232.024 395.764 229.061 389.076 223.134C382.387 217.207 379.043 208.487 379.043 196.972C379.043 185.457 382.387 176.737 389.076 170.81C395.764 164.883 404.993 161.92 416.762 161.92ZM416.762 179.065C408.464 179.065 404.316 183.849 404.316 193.416V200.655C404.316 210.138 408.464 214.879 416.762 214.879C425.144 214.879 429.335 210.138 429.335 200.655V193.416C429.335 183.849 425.144 179.065 416.762 179.065ZM510.995 161.92C520.054 161.92 527.039 164.883 531.95 170.81C536.86 176.737 539.316 185.5 539.316 197.099C539.316 208.614 536.86 217.334 531.95 223.261C527.039 229.103 520.054 232.024 510.995 232.024C503.205 232.024 496.94 229.484 492.199 224.404V255.519H466.926V163.444H487.5L489.659 172.969C494.569 165.603 501.681 161.92 510.995 161.92ZM503.121 180.589C499.395 180.589 496.601 181.901 494.739 184.526C492.876 187.151 491.945 190.58 491.945 194.813V199.004C491.945 203.237 492.876 206.709 494.739 209.418C496.601 212.043 499.395 213.355 503.121 213.355C510.402 213.355 514.043 208.995 514.043 200.274V193.543C514.043 184.907 510.402 180.589 503.121 180.589ZM586.178 161.92C598.454 161.92 607.81 164.799 614.245 170.556C620.764 176.313 624.024 185.119 624.024 196.972V201.29H573.732C573.732 206.116 574.79 209.757 576.907 212.212C579.108 214.667 582.537 215.895 587.194 215.895C591.427 215.895 594.517 215.006 596.465 213.228C598.497 211.45 599.513 209.079 599.513 206.116H624.024C624.024 214.244 620.933 220.594 614.753 225.166C608.572 229.738 599.555 232.024 587.702 232.024C575.256 232.024 565.604 229.145 558.746 223.388C551.888 217.546 548.459 208.741 548.459 196.972C548.459 185.457 551.803 176.737 558.492 170.81C565.18 164.883 574.409 161.92 586.178 161.92ZM587.194 178.049C579.235 178.049 574.79 181.817 573.859 189.352H598.497C598.497 185.881 597.481 183.129 595.449 181.097C593.501 179.065 590.75 178.049 587.194 178.049ZM676.982 161.793C678.929 161.793 680.665 162.047 682.189 162.555C683.713 162.978 684.475 163.232 684.475 163.317V184.526H676.347C671.097 184.526 667.287 185.881 664.917 188.59C662.631 191.299 661.488 195.321 661.488 200.655V230.5H636.215V163.444H656.916L658.567 173.604C660.091 169.709 662.504 166.788 665.806 164.841C669.108 162.809 672.833 161.793 676.982 161.793Z"/>
</mask>
<path d="M0.202199 5.124H70.8142V26.079H28.2692V41.065H64.8452V61.131H28.2692V92.5H0.202199V5.124ZM131.773 92.5L130.122 82.34C127.498 85.9807 124.026 88.8593 119.708 90.976C115.475 93.008 110.988 94.024 106.246 94.024C98.4569 94.024 92.6149 91.865 88.7202 87.547C84.8255 83.229 82.8782 77.006 82.8782 68.878V25.444H108.151V65.83C108.151 68.7087 108.871 71.037 110.31 72.815C111.834 74.5083 113.951 75.355 116.66 75.355C119.793 75.355 122.333 74.339 124.28 72.307C126.228 70.275 127.201 67.7773 127.201 64.814V25.444H152.474V92.5H131.773ZM168.729 92.5V0.424997H194.002V92.5H168.729ZM211.021 92.5V0.424997H236.294V92.5H211.021ZM333.197 3.59999C344.373 3.59999 353.56 5.88599 360.756 10.458C367.953 14.9453 371.636 21.634 371.805 30.524V32.048H345.516V31.54C345.516 29 344.585 26.8833 342.722 25.19C340.86 23.4967 338.023 22.65 334.213 22.65C330.488 22.65 327.609 23.2003 325.577 24.301C323.63 25.4017 322.656 26.7563 322.656 28.365C322.656 30.651 324.011 32.3443 326.72 33.445C329.43 34.5457 333.79 35.6887 339.801 36.874C346.829 38.3133 352.586 39.8373 357.073 41.446C361.645 42.97 365.625 45.51 369.011 49.066C372.398 52.622 374.134 57.448 374.218 63.544C374.218 73.8733 370.705 81.5357 363.677 86.531C356.735 91.5263 347.421 94.024 335.737 94.024C322.106 94.024 311.48 91.738 303.86 87.166C296.325 82.594 292.557 74.5083 292.557 62.909H319.1C319.1 67.3117 320.243 70.275 322.529 71.799C324.815 73.2383 328.371 73.958 333.197 73.958C336.753 73.958 339.674 73.577 341.96 72.815C344.331 72.053 345.516 70.4867 345.516 68.116C345.516 65.9993 344.204 64.433 341.579 63.417C339.039 62.3163 334.848 61.1733 329.006 59.988C321.894 58.464 316.01 56.8977 311.353 55.289C306.697 53.5957 302.633 50.844 299.161 47.034C295.69 43.224 293.954 38.0593 293.954 31.54C293.954 21.9727 297.637 14.9453 305.003 10.458C312.454 5.88599 321.852 3.59999 333.197 3.59999ZM431.074 25.444V42.589H416.85V68.116C416.85 71.164 417.358 73.4077 418.374 74.847C419.39 76.2017 421.252 76.879 423.962 76.879H431.074V91.738C429.042 92.4153 426.417 92.9657 423.2 93.389C419.982 93.8123 417.188 94.024 414.818 94.024C407.367 94.024 401.61 92.6693 397.546 89.96C393.566 87.2507 391.577 82.6363 391.577 76.117V42.589H382.179V25.444H392.593L398.054 5.124H416.85V25.444H431.074ZM475.947 23.92C486.192 23.92 494.532 25.6557 500.966 29.127C507.401 32.5137 510.618 38.0593 510.618 45.764V71.926C510.618 73.3653 510.957 74.5507 511.634 75.482C512.312 76.4133 513.328 76.879 514.682 76.879H519.254V91.484C519 91.6533 518.323 91.9497 517.222 92.373C516.206 92.7117 514.725 93.0503 512.777 93.389C510.83 93.8123 508.586 94.024 506.046 94.024C501.136 94.024 497.072 93.3043 493.854 91.865C490.722 90.341 488.563 88.2667 487.377 85.642C484.16 88.182 480.562 90.214 476.582 91.738C472.603 93.262 467.946 94.024 462.612 94.024C446.864 94.024 438.99 87.7587 438.99 75.228C438.99 68.7087 440.726 63.7557 444.197 60.369C447.753 56.8977 452.833 54.527 459.437 53.257C466.041 51.987 474.677 51.352 485.345 51.352V48.05C485.345 45.4253 484.414 43.4357 482.551 42.081C480.773 40.7263 478.445 40.049 475.566 40.049C472.942 40.049 470.656 40.5147 468.708 41.446C466.846 42.3773 465.914 43.859 465.914 45.891V46.399H441.022C440.938 45.9757 440.895 45.383 440.895 44.621C440.895 38.271 443.901 33.2333 449.912 29.508C456.008 25.7827 464.687 23.92 475.947 23.92ZM485.345 63.29C478.149 63.29 472.815 64.0943 469.343 65.703C465.957 67.227 464.263 69.3013 464.263 71.926C464.263 76.1593 467.142 78.276 472.899 78.276C476.201 78.276 479.08 77.387 481.535 75.609C484.075 73.831 485.345 71.6297 485.345 69.005V63.29ZM562.179 23.92C573.186 23.92 582.076 26.2907 588.849 31.032C595.707 35.6887 599.136 42.843 599.136 52.495H574.625C574.625 44.875 570.477 41.065 562.179 41.065C553.882 41.065 549.733 45.8487 549.733 55.416V62.655C549.733 72.1377 554.051 76.879 562.687 76.879C571.323 76.879 575.641 72.9843 575.641 65.195H599.136C599.136 74.9317 595.707 82.1707 588.849 86.912C582.076 91.6533 573.186 94.024 562.179 94.024C550.411 94.024 541.182 91.0607 534.493 85.134C527.805 79.2073 524.46 70.4867 524.46 58.972C524.46 47.4573 527.805 38.7367 534.493 32.81C541.182 26.8833 550.411 23.92 562.179 23.92ZM656.844 25.444H686.308L661.543 52.495L686.943 92.5H658.241L644.144 69.513L635.381 78.022V92.5H610.108V0.297999H635.381V51.098L656.844 25.444ZM40.2186 143.124C70.7833 143.124 86.0656 157.687 86.0656 186.812C86.0656 215.937 70.7833 230.5 40.2186 230.5H2.37261V143.124H40.2186ZM30.4396 209.545H39.7106C51.4793 209.545 57.3636 203.237 57.3636 190.622V183.002C57.3636 170.387 51.4793 164.079 39.7106 164.079H30.4396V209.545ZM134.112 161.92C146.389 161.92 155.745 164.799 162.179 170.556C168.699 176.313 171.958 185.119 171.958 196.972V201.29H121.666C121.666 206.116 122.725 209.757 124.841 212.212C127.043 214.667 130.472 215.895 135.128 215.895C139.362 215.895 142.452 215.006 144.399 213.228C146.431 211.45 147.447 209.079 147.447 206.116H171.958C171.958 214.244 168.868 220.594 162.687 225.166C156.507 229.738 147.49 232.024 135.636 232.024C123.19 232.024 113.538 229.145 106.68 223.388C99.8223 217.546 96.3933 208.741 96.3933 196.972C96.3933 185.457 99.7376 176.737 106.426 170.81C113.115 164.883 122.344 161.92 134.112 161.92ZM135.128 178.049C127.17 178.049 122.725 181.817 121.793 189.352H146.431C146.431 185.881 145.415 183.129 143.383 181.097C141.436 179.065 138.684 178.049 135.128 178.049ZM198.581 230.5L173.181 163.444H200.359L212.678 205.227H213.567L225.886 163.444H250.778L225.124 230.5H198.581ZM289.762 161.92C302.038 161.92 311.394 164.799 317.829 170.556C324.348 176.313 327.608 185.119 327.608 196.972V201.29H277.316C277.316 206.116 278.374 209.757 280.491 212.212C282.692 214.667 286.121 215.895 290.778 215.895C295.011 215.895 298.101 215.006 300.049 213.228C302.081 211.45 303.097 209.079 303.097 206.116H327.608C327.608 214.244 324.517 220.594 318.337 225.166C312.156 229.738 303.139 232.024 291.286 232.024C278.84 232.024 269.188 229.145 262.33 223.388C255.472 217.546 252.043 208.741 252.043 196.972C252.043 185.457 255.387 176.737 262.076 170.81C268.764 164.883 277.993 161.92 289.762 161.92ZM290.778 178.049C282.819 178.049 278.374 181.817 277.443 189.352H302.081C302.081 185.881 301.065 183.129 299.033 181.097C297.085 179.065 294.334 178.049 290.778 178.049ZM340.688 230.5V138.425H365.961V230.5H340.688ZM416.762 161.92C428.53 161.92 437.759 164.926 444.448 170.937C451.221 176.864 454.608 185.542 454.608 196.972C454.608 208.402 451.221 217.123 444.448 223.134C437.759 229.061 428.53 232.024 416.762 232.024C404.993 232.024 395.764 229.061 389.076 223.134C382.387 217.207 379.043 208.487 379.043 196.972C379.043 185.457 382.387 176.737 389.076 170.81C395.764 164.883 404.993 161.92 416.762 161.92ZM416.762 179.065C408.464 179.065 404.316 183.849 404.316 193.416V200.655C404.316 210.138 408.464 214.879 416.762 214.879C425.144 214.879 429.335 210.138 429.335 200.655V193.416C429.335 183.849 425.144 179.065 416.762 179.065ZM510.995 161.92C520.054 161.92 527.039 164.883 531.95 170.81C536.86 176.737 539.316 185.5 539.316 197.099C539.316 208.614 536.86 217.334 531.95 223.261C527.039 229.103 520.054 232.024 510.995 232.024C503.205 232.024 496.94 229.484 492.199 224.404V255.519H466.926V163.444H487.5L489.659 172.969C494.569 165.603 501.681 161.92 510.995 161.92ZM503.121 180.589C499.395 180.589 496.601 181.901 494.739 184.526C492.876 187.151 491.945 190.58 491.945 194.813V199.004C491.945 203.237 492.876 206.709 494.739 209.418C496.601 212.043 499.395 213.355 503.121 213.355C510.402 213.355 514.043 208.995 514.043 200.274V193.543C514.043 184.907 510.402 180.589 503.121 180.589ZM586.178 161.92C598.454 161.92 607.81 164.799 614.245 170.556C620.764 176.313 624.024 185.119 624.024 196.972V201.29H573.732C573.732 206.116 574.79 209.757 576.907 212.212C579.108 214.667 582.537 215.895 587.194 215.895C591.427 215.895 594.517 215.006 596.465 213.228C598.497 211.45 599.513 209.079 599.513 206.116H624.024C624.024 214.244 620.933 220.594 614.753 225.166C608.572 229.738 599.555 232.024 587.702 232.024C575.256 232.024 565.604 229.145 558.746 223.388C551.888 217.546 548.459 208.741 548.459 196.972C548.459 185.457 551.803 176.737 558.492 170.81C565.18 164.883 574.409 161.92 586.178 161.92ZM587.194 178.049C579.235 178.049 574.79 181.817 573.859 189.352H598.497C598.497 185.881 597.481 183.129 595.449 181.097C593.501 179.065 590.75 178.049 587.194 178.049ZM676.982 161.793C678.929 161.793 680.665 162.047 682.189 162.555C683.713 162.978 684.475 163.232 684.475 163.317V184.526H676.347C671.097 184.526 667.287 185.881 664.917 188.59C662.631 191.299 661.488 195.321 661.488 200.655V230.5H636.215V163.444H656.916L658.567 173.604C660.091 169.709 662.504 166.788 665.806 164.841C669.108 162.809 672.833 161.793 676.982 161.793Z" fill="url(#paint0_linear_56_75)"/>
<path d="M0.202199 5.124V3.124H-1.7978V5.124H0.202199ZM70.8142 5.124H72.8142V3.124H70.8142V5.124ZM70.8142 26.079V28.079H72.8142V26.079H70.8142ZM28.2692 26.079V24.079H26.2692V26.079H28.2692ZM28.2692 41.065H26.2692V43.065H28.2692V41.065ZM64.8452 41.065H66.8452V39.065H64.8452V41.065ZM64.8452 61.131V63.131H66.8452V61.131H64.8452ZM28.2692 61.131V59.131H26.2692V61.131H28.2692ZM28.2692 92.5V94.5H30.2692V92.5H28.2692ZM0.202199 92.5H-1.7978V94.5H0.202199V92.5ZM0.202199 7.124H70.8142V3.124H0.202199V7.124ZM68.8142 5.124V26.079H72.8142V5.124H68.8142ZM70.8142 24.079H28.2692V28.079H70.8142V24.079ZM26.2692 26.079V41.065H30.2692V26.079H26.2692ZM28.2692 43.065H64.8452V39.065H28.2692V43.065ZM62.8452 41.065V61.131H66.8452V41.065H62.8452ZM64.8452 59.131H28.2692V63.131H64.8452V59.131ZM26.2692 61.131V92.5H30.2692V61.131H26.2692ZM28.2692 90.5H0.202199V94.5H28.2692V90.5ZM2.2022 92.5V5.124H-1.7978V92.5H2.2022ZM131.773 92.5L129.799 92.8208L130.072 94.5H131.773V92.5ZM130.122 82.34L132.096 82.0192L131.322 77.2555L128.5 81.1704L130.122 82.34ZM119.708 90.976L120.574 92.779L120.581 92.7755L120.589 92.7718L119.708 90.976ZM88.7202 87.547L87.2351 88.8865L87.2351 88.8865L88.7202 87.547ZM82.8782 25.444V23.444H80.8782V25.444H82.8782ZM108.151 25.444H110.151V23.444H108.151V25.444ZM110.31 72.815L108.756 74.0734L108.789 74.1141L108.824 74.1529L110.31 72.815ZM124.28 72.307L122.836 70.9232L122.836 70.9232L124.28 72.307ZM127.201 25.444V23.444H125.201V25.444H127.201ZM152.474 25.444H154.474V23.444H152.474V25.444ZM152.474 92.5V94.5H154.474V92.5H152.474ZM133.747 92.1792L132.096 82.0192L128.148 82.6608L129.799 92.8208L133.747 92.1792ZM128.5 81.1704C126.081 84.5256 122.873 87.1975 118.828 89.1802L120.589 92.7718C125.18 90.5212 128.914 87.4357 131.745 83.5096L128.5 81.1704ZM118.843 89.173C114.882 91.074 110.691 92.024 106.246 92.024V96.024C111.284 96.024 116.068 94.942 120.574 92.779L118.843 89.173ZM106.246 92.024C98.8215 92.024 93.604 89.9755 90.2053 86.2075L87.2351 88.8865C91.6257 93.7545 98.0923 96.024 106.246 96.024V92.024ZM90.2053 86.2075C86.7538 82.3807 84.8782 76.708 84.8782 68.878H80.8782C80.8782 77.304 82.8973 84.0773 87.2351 88.8865L90.2053 86.2075ZM84.8782 68.878V25.444H80.8782V68.878H84.8782ZM82.8782 27.444H108.151V23.444H82.8782V27.444ZM106.151 25.444V65.83H110.151V25.444H106.151ZM106.151 65.83C106.151 69.0457 106.96 71.8554 108.756 74.0734L111.865 71.5566C110.782 70.2186 110.151 68.3716 110.151 65.83H106.151ZM108.824 74.1529C110.799 76.3476 113.501 77.355 116.66 77.355V73.355C114.401 73.355 112.87 72.6691 111.797 71.4771L108.824 74.1529ZM116.66 77.355C120.27 77.355 123.355 76.1629 125.724 73.6908L122.836 70.9232C121.311 72.5151 119.316 73.355 116.66 73.355V77.355ZM125.724 73.6908C128.049 71.2653 129.201 68.2629 129.201 64.814H125.201C125.201 67.2918 124.406 69.2847 122.836 70.9232L125.724 73.6908ZM129.201 64.814V25.444H125.201V64.814H129.201ZM127.201 27.444H152.474V23.444H127.201V27.444ZM150.474 25.444V92.5H154.474V25.444H150.474ZM152.474 90.5H131.773V94.5H152.474V90.5ZM168.729 92.5H166.729V94.5H168.729V92.5ZM168.729 0.424997V-1.575H166.729V0.424997H168.729ZM194.002 0.424997H196.002V-1.575H194.002V0.424997ZM194.002 92.5V94.5H196.002V92.5H194.002ZM170.729 92.5V0.424997H166.729V92.5H170.729ZM168.729 2.425H194.002V-1.575H168.729V2.425ZM192.002 0.424997V92.5H196.002V0.424997H192.002ZM194.002 90.5H168.729V94.5H194.002V90.5ZM211.021 92.5H209.021V94.5H211.021V92.5ZM211.021 0.424997V-1.575H209.021V0.424997H211.021ZM236.294 0.424997H238.294V-1.575H236.294V0.424997ZM236.294 92.5V94.5H238.294V92.5H236.294ZM213.021 92.5V0.424997H209.021V92.5H213.021ZM211.021 2.425H236.294V-1.575H211.021V2.425ZM234.294 0.424997V92.5H238.294V0.424997H234.294ZM236.294 90.5H211.021V94.5H236.294V90.5ZM360.756 10.458L359.684 12.1461L359.691 12.1507L359.698 12.1551L360.756 10.458ZM371.805 30.524H373.805V30.5049L373.805 30.4859L371.805 30.524ZM371.805 32.048V34.048H373.805V32.048H371.805ZM345.516 32.048H343.516V34.048H345.516V32.048ZM342.722 25.19L344.068 23.7101L344.068 23.7101L342.722 25.19ZM325.577 24.301L324.625 22.5424L324.609 22.551L324.593 22.5599L325.577 24.301ZM326.72 33.445L327.473 31.5921L327.473 31.5921L326.72 33.445ZM339.801 36.874L340.203 34.9147L340.195 34.9132L340.188 34.9118L339.801 36.874ZM357.073 41.446L356.398 43.3287L356.419 43.3363L356.441 43.3434L357.073 41.446ZM374.218 63.544H376.218V63.5301L376.218 63.5162L374.218 63.544ZM363.677 86.531L362.518 84.9009L362.509 84.9076L363.677 86.531ZM303.86 87.166L302.823 88.8759L302.831 88.881L303.86 87.166ZM292.557 62.909V60.909H290.557V62.909H292.557ZM319.1 62.909H321.1V60.909H319.1V62.909ZM322.529 71.799L321.42 73.4631L321.441 73.4776L321.464 73.4915L322.529 71.799ZM341.96 72.815L341.348 70.9109L341.338 70.9142L341.328 70.9176L341.96 72.815ZM341.579 63.417L340.784 65.2521L340.82 65.2678L340.857 65.2821L341.579 63.417ZM329.006 59.988L328.587 61.9436L328.598 61.9459L328.608 61.9481L329.006 59.988ZM311.353 55.289L310.67 57.1686L310.685 57.1741L310.7 57.1794L311.353 55.289ZM299.161 47.034L297.683 48.381L297.683 48.381L299.161 47.034ZM305.003 10.458L306.044 12.166L306.049 12.1626L305.003 10.458ZM333.197 5.59999C344.109 5.59999 352.893 7.83211 359.684 12.1461L361.829 8.76986C354.226 3.93988 344.637 1.59999 333.197 1.59999V5.59999ZM359.698 12.1551C366.288 16.264 369.648 22.3094 369.806 30.5621L373.805 30.4859C373.623 20.9586 369.618 13.6266 361.814 8.76088L359.698 12.1551ZM369.805 30.524V32.048H373.805V30.524H369.805ZM371.805 30.048H345.516V34.048H371.805V30.048ZM347.516 32.048V31.54H343.516V32.048H347.516ZM347.516 31.54C347.516 28.4423 346.351 25.7864 344.068 23.7101L341.377 26.6699C342.818 27.9803 343.516 29.5577 343.516 31.54H347.516ZM344.068 23.7101C341.687 21.5461 338.273 20.65 334.213 20.65V24.65C337.774 24.65 340.032 25.4472 341.377 26.6699L344.068 23.7101ZM334.213 20.65C330.337 20.65 327.076 21.2147 324.625 22.5424L326.53 26.0596C328.143 25.1859 330.638 24.65 334.213 24.65V20.65ZM324.593 22.5599C322.294 23.8595 320.656 25.7662 320.656 28.365H324.656C324.656 27.7465 324.966 26.9439 326.561 26.0421L324.593 22.5599ZM320.656 28.365C320.656 29.9357 321.133 31.3775 322.11 32.5989C323.063 33.7896 324.402 34.662 325.967 35.2979L327.473 31.5921C326.329 31.1274 325.636 30.6027 325.234 30.1001C324.856 29.6282 324.656 29.0803 324.656 28.365H320.656ZM325.967 35.2979C328.864 36.4748 333.383 37.6469 339.414 38.8362L340.188 34.9118C334.197 33.7304 329.995 32.6166 327.473 31.5921L325.967 35.2979ZM339.4 38.8333C346.376 40.2621 352.033 41.7637 356.398 43.3287L357.748 39.5633C353.139 37.911 347.281 36.3646 340.203 34.9147L339.4 38.8333ZM356.441 43.3434C360.696 44.7619 364.397 47.1214 367.563 50.4453L370.459 47.6867C366.852 43.8986 362.594 41.1781 357.706 39.5486L356.441 43.3434ZM367.563 50.4453C370.523 53.5536 372.139 57.8523 372.218 63.5718L376.218 63.5162C376.128 57.0437 374.273 51.6904 370.459 47.6867L367.563 50.4453ZM372.218 63.544C372.218 73.3715 368.91 80.3578 362.518 84.9009L364.836 88.1611C372.5 82.7135 376.218 74.3752 376.218 63.544H372.218ZM362.509 84.9076C356.011 89.5828 347.152 92.024 335.737 92.024V96.024C347.69 96.024 357.458 93.4698 364.845 88.1544L362.509 84.9076ZM335.737 92.024C322.29 92.024 312.075 89.7623 304.889 85.451L302.831 88.881C310.886 93.7137 321.922 96.024 335.737 96.024V92.024ZM304.898 85.4561C298.147 81.36 294.557 74.0597 294.557 62.909H290.557C290.557 74.957 294.503 83.828 302.823 88.8759L304.898 85.4561ZM292.557 64.909H319.1V60.909H292.557V64.909ZM317.1 62.909C317.1 67.5656 318.304 71.3857 321.42 73.4631L323.639 70.1349C322.183 69.1643 321.1 67.0577 321.1 62.909H317.1ZM321.464 73.4915C324.233 75.2349 328.251 75.958 333.197 75.958V71.958C328.491 71.958 325.398 71.2418 323.595 70.1065L321.464 73.4915ZM333.197 75.958C336.876 75.958 340.031 75.5664 342.593 74.7124L341.328 70.9176C339.318 71.5876 336.631 71.958 333.197 71.958V75.958ZM342.572 74.7191C344.044 74.246 345.322 73.4649 346.222 72.2756C347.128 71.0778 347.516 69.6444 347.516 68.116H343.516C343.516 68.9583 343.311 69.4934 343.032 69.8619C342.747 70.2389 342.247 70.622 341.348 70.9109L342.572 74.7191ZM347.516 68.116C347.516 66.6063 347.034 65.2263 346.065 64.0693C345.125 62.9478 343.815 62.138 342.301 61.5519L340.857 65.2821C341.968 65.712 342.626 66.1933 342.999 66.6382C343.342 67.0475 343.516 67.509 343.516 68.116H347.516ZM342.374 61.5819C339.63 60.3925 335.263 59.2168 329.404 58.0279L328.608 61.9481C334.433 63.1298 338.449 64.2402 340.784 65.2521L342.374 61.5819ZM329.425 58.0324C322.359 56.5182 316.56 54.9716 312.006 53.3986L310.7 57.1794C315.46 58.8237 321.429 60.4098 328.587 61.9436L329.425 58.0324ZM312.037 53.4094C307.697 51.8312 303.902 49.2677 300.64 45.687L297.683 48.381C301.363 52.4203 305.696 55.3601 310.67 57.1686L312.037 53.4094ZM300.64 45.687C297.586 42.3354 295.954 37.698 295.954 31.54H291.954C291.954 38.4207 293.794 44.1126 297.683 48.381L300.64 45.687ZM295.954 31.54C295.954 22.5791 299.348 16.2453 306.044 12.166L303.963 8.74998C295.927 13.6454 291.954 21.3662 291.954 31.54H295.954ZM306.049 12.1626C313.104 7.83334 322.113 5.59999 333.197 5.59999V1.59999C321.591 1.59999 311.803 3.93865 303.957 8.75335L306.049 12.1626ZM431.074 25.444H433.074V23.444H431.074V25.444ZM431.074 42.589V44.589H433.074V42.589H431.074ZM416.85 42.589V40.589H414.85V42.589H416.85ZM418.374 74.847L416.74 76.0004L416.756 76.0239L416.774 76.047L418.374 74.847ZM431.074 76.879H433.074V74.879H431.074V76.879ZM431.074 91.738L431.706 93.6354L433.074 93.1795V91.738H431.074ZM423.2 93.389L423.46 95.3719L423.46 95.3719L423.2 93.389ZM397.546 89.96L396.42 91.6132L396.428 91.6187L396.436 91.6241L397.546 89.96ZM391.577 42.589H393.577V40.589H391.577V42.589ZM382.179 42.589H380.179V44.589H382.179V42.589ZM382.179 25.444V23.444H380.179V25.444H382.179ZM392.593 25.444V27.444H394.126L394.524 25.9631L392.593 25.444ZM398.054 5.124V3.124H396.52L396.122 4.60492L398.054 5.124ZM416.85 5.124H418.85V3.124H416.85V5.124ZM416.85 25.444H414.85V27.444H416.85V25.444ZM429.074 25.444V42.589H433.074V25.444H429.074ZM431.074 40.589H416.85V44.589H431.074V40.589ZM414.85 42.589V68.116H418.85V42.589H414.85ZM414.85 68.116C414.85 71.3088 415.367 74.0561 416.74 76.0004L420.007 73.6936C419.348 72.7592 418.85 71.0192 418.85 68.116H414.85ZM416.774 76.047C418.349 78.1472 421.004 78.879 423.962 78.879V74.879C421.501 74.879 420.43 74.2561 419.974 73.647L416.774 76.047ZM423.962 78.879H431.074V74.879H423.962V78.879ZM429.074 76.879V91.738H433.074V76.879H429.074ZM430.441 89.8406C428.575 90.4628 426.087 90.9918 422.939 91.4061L423.46 95.3719C426.747 94.9395 429.508 94.3679 431.706 93.6354L430.441 89.8406ZM422.939 91.4061C419.779 91.8219 417.076 92.024 414.818 92.024V96.024C417.301 96.024 420.186 95.8028 423.46 95.3719L422.939 91.4061ZM414.818 92.024C407.568 92.024 402.26 90.6991 398.655 88.2959L396.436 91.6241C400.959 94.6395 407.165 96.024 414.818 96.024V92.024ZM398.671 88.3068C395.422 86.0945 393.577 82.2318 393.577 76.117H389.577C389.577 83.0408 391.711 88.4068 396.42 91.6132L398.671 88.3068ZM393.577 76.117V42.589H389.577V76.117H393.577ZM391.577 40.589H382.179V44.589H391.577V40.589ZM384.179 42.589V25.444H380.179V42.589H384.179ZM382.179 27.444H392.593V23.444H382.179V27.444ZM394.524 25.9631L399.985 5.64308L396.122 4.60492L390.661 24.9249L394.524 25.9631ZM398.054 7.124H416.85V3.124H398.054V7.124ZM414.85 5.124V25.444H418.85V5.124H414.85ZM416.85 27.444H431.074V23.444H416.85V27.444ZM500.966 29.127L500.017 30.8872L500.026 30.8921L500.035 30.8968L500.966 29.127ZM511.634 75.482L513.252 74.3057L513.252 74.3057L511.634 75.482ZM519.254 76.879H521.254V74.879H519.254V76.879ZM519.254 91.484L520.364 93.1481L521.254 92.5544V91.484H519.254ZM517.222 92.373L517.855 94.2704L517.898 94.256L517.94 94.2397L517.222 92.373ZM512.777 93.389L512.434 91.4186L512.393 91.4258L512.352 91.4346L512.777 93.389ZM493.854 91.865L492.979 93.6635L493.008 93.6775L493.037 93.6906L493.854 91.865ZM487.377 85.642L489.2 84.8188L488.147 82.4864L486.138 84.0722L487.377 85.642ZM476.582 91.738L475.867 89.8703L475.867 89.8703L476.582 91.738ZM444.197 60.369L445.594 61.8006L445.594 61.8001L444.197 60.369ZM459.437 53.257L459.059 51.293L459.059 51.293L459.437 53.257ZM485.345 51.352V53.352H487.345V51.352H485.345ZM482.551 42.081L481.339 43.6719L481.357 43.6854L481.375 43.6985L482.551 42.081ZM468.708 41.446L467.845 39.6417L467.829 39.6493L467.814 39.6571L468.708 41.446ZM465.914 46.399V48.399H467.914V46.399H465.914ZM441.022 46.399L439.061 46.7912L439.383 48.399H441.022V46.399ZM449.912 29.508L448.869 27.8014L448.859 27.808L449.912 29.508ZM485.345 63.29H487.345V61.29H485.345V63.29ZM469.343 65.703L470.164 67.5268L470.174 67.5223L470.184 67.5176L469.343 65.703ZM481.535 75.609L480.388 73.9705L480.375 73.9797L480.362 73.9891L481.535 75.609ZM475.947 25.92C485.986 25.92 493.967 27.6237 500.017 30.8872L501.916 27.3668C495.096 23.6876 486.398 21.92 475.947 21.92V25.92ZM500.035 30.8968C502.965 32.4391 505.08 34.4245 506.475 36.8299C507.874 39.2416 508.618 42.193 508.618 45.764H512.618C512.618 41.6303 511.753 37.9565 509.935 34.8226C508.113 31.6823 505.402 29.2016 501.898 27.3572L500.035 30.8968ZM508.618 45.764V71.926H512.618V45.764H508.618ZM508.618 71.926C508.618 73.6812 509.035 75.3079 510.017 76.6583L513.252 74.3057C512.879 73.7935 512.618 73.0495 512.618 71.926H508.618ZM510.017 76.6583C511.14 78.2029 512.816 78.879 514.682 78.879V74.879C513.839 74.879 513.483 74.6238 513.252 74.3057L510.017 76.6583ZM514.682 78.879H519.254V74.879H514.682V78.879ZM517.254 76.879V91.484H521.254V76.879H517.254ZM518.145 89.8199C518.18 89.7966 518.094 89.8524 517.754 90.0009C517.454 90.1321 517.041 90.2999 516.504 90.5063L517.94 94.2397C518.504 94.0227 518.98 93.8307 519.357 93.6656C519.695 93.5178 520.075 93.3407 520.364 93.1481L518.145 89.8199ZM516.59 90.4756C515.716 90.7667 514.351 91.0853 512.434 91.4186L513.12 95.3594C515.098 95.0154 516.696 94.6566 517.855 94.2704L516.59 90.4756ZM512.352 91.4346C510.577 91.8207 508.48 92.024 506.046 92.024V96.024C508.692 96.024 511.083 95.804 513.202 95.3434L512.352 91.4346ZM506.046 92.024C501.314 92.024 497.551 91.3279 494.671 90.0394L493.037 93.6906C496.592 95.2807 500.957 96.024 506.046 96.024V92.024ZM494.729 90.0665C491.925 88.7024 490.155 86.9333 489.2 84.8188L485.554 86.4652C486.97 89.6001 489.518 91.9796 492.979 93.6635L494.729 90.0665ZM486.138 84.0722C483.085 86.4821 479.665 88.4157 475.867 89.8703L477.297 93.6057C481.458 92.0123 485.234 89.8819 488.616 87.2118L486.138 84.0722ZM475.867 89.8703C472.165 91.2879 467.761 92.024 462.612 92.024V96.024C468.131 96.024 473.04 95.2361 477.297 93.6057L475.867 89.8703ZM462.612 92.024C454.95 92.024 449.573 90.4909 446.141 87.76C442.796 85.0984 440.99 81.0482 440.99 75.228H436.99C436.99 81.9385 439.121 87.2862 443.65 90.89C448.092 94.4244 454.526 96.024 462.612 96.024V92.024ZM440.99 75.228C440.99 69.0558 442.627 64.6952 445.594 61.8006L442.801 58.9374C438.825 62.8162 436.99 68.3616 436.99 75.228H440.99ZM445.594 61.8001C448.787 58.6834 453.463 56.4425 459.815 55.221L459.059 51.293C452.203 52.6115 446.719 55.1119 442.8 58.9378L445.594 61.8001ZM459.815 55.221C466.244 53.9846 474.74 53.352 485.345 53.352V49.352C474.615 49.352 465.838 49.9894 459.059 51.293L459.815 55.221ZM487.345 51.352V48.05H483.345V51.352H487.345ZM487.345 48.05C487.345 44.8881 486.185 42.2511 483.728 40.4635L481.375 43.6985C482.642 44.6202 483.345 45.9626 483.345 48.05H487.345ZM483.763 40.4901C481.548 38.8022 478.756 38.049 475.566 38.049V42.049C478.134 42.049 479.998 42.6504 481.339 43.6719L483.763 40.4901ZM475.566 38.049C472.706 38.049 470.114 38.5567 467.845 39.6417L469.571 43.2503C471.197 42.4726 473.177 42.049 475.566 42.049V38.049ZM467.814 39.6571C466.618 40.2552 465.614 41.086 464.919 42.1914C464.223 43.2997 463.914 44.5602 463.914 45.891H467.914C467.914 45.1898 468.071 44.6935 468.306 44.3201C468.542 43.9438 468.936 43.5681 469.603 43.2349L467.814 39.6571ZM463.914 45.891V46.399H467.914V45.891H463.914ZM465.914 44.399H441.022V48.399H465.914V44.399ZM442.983 46.0068C442.937 45.7746 442.895 45.3348 442.895 44.621H438.895C438.895 45.4312 438.938 46.1767 439.061 46.7912L442.983 46.0068ZM442.895 44.621C442.895 39.0522 445.463 34.6181 450.966 31.208L448.859 27.808C442.339 31.8486 438.895 37.4898 438.895 44.621H442.895ZM450.955 31.2146C456.605 27.7617 464.861 25.92 475.947 25.92V21.92C464.512 21.92 455.411 23.8036 448.869 27.8014L450.955 31.2146ZM485.345 61.29C478.07 61.29 472.378 62.0922 468.502 63.8884L470.184 67.5176C473.251 66.0965 478.227 65.29 485.345 65.29V61.29ZM468.522 63.8792C464.765 65.5699 462.263 68.1937 462.263 71.926H466.263C466.263 70.409 467.148 68.8841 470.164 67.5268L468.522 63.8792ZM462.263 71.926C462.263 74.5457 463.187 76.7921 465.237 78.2998C467.173 79.7231 469.834 80.276 472.899 80.276V76.276C470.207 76.276 468.55 75.7706 467.607 75.0772C466.779 74.4682 466.263 73.5396 466.263 71.926H462.263ZM472.899 80.276C476.583 80.276 479.881 79.2762 482.708 77.2289L480.362 73.9891C478.279 75.4978 475.82 76.276 472.899 76.276V80.276ZM482.682 77.2475C485.646 75.1728 487.345 72.4069 487.345 69.005H483.345C483.345 70.8525 482.504 72.4892 480.388 73.9705L482.682 77.2475ZM487.345 69.005V63.29H483.345V69.005H487.345ZM588.849 31.032L587.702 32.6705L587.714 32.6786L587.726 32.6866L588.849 31.032ZM599.136 52.495V54.495H601.136V52.495H599.136ZM574.625 52.495H572.625V54.495H574.625V52.495ZM575.641 65.195V63.195H573.641V65.195H575.641ZM599.136 65.195H601.136V63.195H599.136V65.195ZM588.849 86.912L587.712 85.2669L587.702 85.2735L588.849 86.912ZM534.493 85.134L533.167 86.6309L533.167 86.6309L534.493 85.134ZM534.493 32.81L533.167 31.3131L533.167 31.3131L534.493 32.81ZM562.179 25.92C572.91 25.92 581.36 28.2311 587.702 32.6705L589.996 29.3935C582.791 24.3502 573.462 21.92 562.179 21.92V25.92ZM587.726 32.6866C593.939 36.9055 597.136 43.3798 597.136 52.495H601.136C601.136 42.3062 597.475 34.4719 589.973 29.3774L587.726 32.6866ZM599.136 50.495H574.625V54.495H599.136V50.495ZM576.625 52.495C576.625 48.3308 575.484 44.853 572.866 42.4494C570.281 40.0754 566.596 39.065 562.179 39.065V43.065C566.06 43.065 568.597 43.9595 570.161 45.3956C571.692 46.802 572.625 49.0391 572.625 52.495H576.625ZM562.179 39.065C557.642 39.065 553.898 40.3861 551.334 43.3424C548.817 46.2442 547.733 50.3884 547.733 55.416H551.733C551.733 50.8763 552.724 47.845 554.356 45.9631C555.94 44.1357 558.419 43.065 562.179 43.065V39.065ZM547.733 55.416V62.655H551.733V55.416H547.733ZM547.733 62.655C547.733 67.6607 548.869 71.7883 551.493 74.6697C554.149 77.5865 558.01 78.879 562.687 78.879V74.879C558.728 74.879 556.112 73.8008 554.45 71.9763C552.756 70.1164 551.733 67.1319 551.733 62.655H547.733ZM562.687 78.879C567.265 78.879 571.073 77.8511 573.742 75.4431C576.451 72.9998 577.641 69.4543 577.641 65.195H573.641C573.641 68.725 572.672 71.0215 571.063 72.4729C569.415 73.9596 566.745 74.879 562.687 74.879V78.879ZM575.641 67.195H599.136V63.195H575.641V67.195ZM597.136 65.195C597.136 74.4018 593.933 80.9658 587.712 85.2669L589.987 88.5571C597.481 83.3755 601.136 75.4616 601.136 65.195H597.136ZM587.702 85.2735C581.36 89.7129 572.91 92.024 562.179 92.024V96.024C573.462 96.024 582.791 93.5938 589.996 88.5505L587.702 85.2735ZM562.179 92.024C550.741 92.024 542.039 89.1483 535.82 83.6371L533.167 86.6309C540.324 92.973 550.08 96.024 562.179 96.024V92.024ZM535.82 83.6371C529.675 78.1929 526.46 70.0903 526.46 58.972H522.46C522.46 70.883 525.934 80.2217 533.167 86.6309L535.82 83.6371ZM526.46 58.972C526.46 47.8537 529.675 39.7511 535.82 34.3069L533.167 31.3131C525.934 37.7223 522.46 47.061 522.46 58.972H526.46ZM535.82 34.3069C542.039 28.7957 550.741 25.92 562.179 25.92V21.92C550.08 21.92 540.324 24.971 533.167 31.3131L535.82 34.3069ZM656.844 25.444V23.444H655.909L655.31 24.1606L656.844 25.444ZM686.308 25.444L687.783 26.7945L690.85 23.444H686.308V25.444ZM661.543 52.495L660.068 51.1445L659.033 52.2741L659.854 53.567L661.543 52.495ZM686.943 92.5V94.5H690.582L688.631 91.428L686.943 92.5ZM658.241 92.5L656.536 93.5456L657.121 94.5H658.241V92.5ZM644.144 69.513L645.849 68.4674L644.543 66.3379L642.751 68.0781L644.144 69.513ZM635.381 78.022L633.988 76.5871L633.381 77.1763V78.022H635.381ZM635.381 92.5V94.5H637.381V92.5H635.381ZM610.108 92.5H608.108V94.5H610.108V92.5ZM610.108 0.297999V-1.702H608.108V0.297999H610.108ZM635.381 0.297999H637.381V-1.702H635.381V0.297999ZM635.381 51.098H633.381V56.6054L636.915 52.3814L635.381 51.098ZM656.844 27.444H686.308V23.444H656.844V27.444ZM684.833 24.0935L660.068 51.1445L663.018 53.8455L687.783 26.7945L684.833 24.0935ZM659.854 53.567L685.254 93.572L688.631 91.428L663.231 51.423L659.854 53.567ZM686.943 90.5H658.241V94.5H686.943V90.5ZM659.946 91.4544L645.849 68.4674L642.439 70.5586L656.536 93.5456L659.946 91.4544ZM642.751 68.0781L633.988 76.5871L636.774 79.4569L645.537 70.9479L642.751 68.0781ZM633.381 78.022V92.5H637.381V78.022H633.381ZM635.381 90.5H610.108V94.5H635.381V90.5ZM612.108 92.5V0.297999H608.108V92.5H612.108ZM610.108 2.298H635.381V-1.702H610.108V2.298ZM633.381 0.297999V51.098H637.381V0.297999H633.381ZM636.915 52.3814L658.378 26.7274L655.31 24.1606L633.847 49.8146L636.915 52.3814ZM2.37261 230.5H0.372609V232.5H2.37261V230.5ZM2.37261 143.124V141.124H0.372609V143.124H2.37261ZM30.4396 209.545H28.4396V211.545H30.4396V209.545ZM30.4396 164.079V162.079H28.4396V164.079H30.4396ZM40.2186 145.124C55.2161 145.124 66.0929 148.698 73.2242 155.494C80.3374 162.272 84.0656 172.583 84.0656 186.812H88.0656C88.0656 171.916 84.1527 160.383 75.9836 152.598C67.8325 144.831 55.7858 141.124 40.2186 141.124V145.124ZM84.0656 186.812C84.0656 201.041 80.3374 211.352 73.2242 218.13C66.0929 224.926 55.2161 228.5 40.2186 228.5V232.5C55.7858 232.5 67.8325 228.793 75.9836 221.026C84.1527 213.241 88.0656 201.708 88.0656 186.812H84.0656ZM40.2186 228.5H2.37261V232.5H40.2186V228.5ZM4.37261 230.5V143.124H0.372609V230.5H4.37261ZM2.37261 145.124H40.2186V141.124H2.37261V145.124ZM30.4396 211.545H39.7106V207.545H30.4396V211.545ZM39.7106 211.545C45.9402 211.545 50.97 209.869 54.4128 206.179C57.8312 202.514 59.3636 197.205 59.3636 190.622H55.3636C55.3636 196.655 53.9539 200.807 51.4879 203.45C49.0464 206.067 45.2497 207.545 39.7106 207.545V211.545ZM59.3636 190.622V183.002H55.3636V190.622H59.3636ZM59.3636 183.002C59.3636 176.419 57.8312 171.11 54.4128 167.445C50.97 163.755 45.9402 162.079 39.7106 162.079V166.079C45.2497 166.079 49.0464 167.557 51.4879 170.174C53.9539 172.817 55.3636 176.969 55.3636 183.002H59.3636ZM39.7106 162.079H30.4396V166.079H39.7106V162.079ZM28.4396 164.079V209.545H32.4396V164.079H28.4396ZM162.179 170.556L160.846 172.047L160.855 172.055L162.179 170.556ZM171.958 201.29V203.29H173.958V201.29H171.958ZM121.666 201.29V199.29H119.666V201.29H121.666ZM124.841 212.212L123.326 213.518L123.339 213.533L123.352 213.547L124.841 212.212ZM144.399 213.228L143.082 211.723L143.066 211.737L143.051 211.751L144.399 213.228ZM147.447 206.116V204.116H145.447V206.116H147.447ZM171.958 206.116H173.958V204.116H171.958V206.116ZM162.687 225.166L161.498 223.558L161.498 223.558L162.687 225.166ZM106.68 223.388L105.383 224.91L105.389 224.915L105.394 224.92L106.68 223.388ZM106.426 170.81L105.1 169.313L105.1 169.313L106.426 170.81ZM121.793 189.352L119.808 189.107L119.531 191.352H121.793V189.352ZM146.431 189.352V191.352H148.431V189.352H146.431ZM143.383 181.097L141.939 182.481L141.954 182.496L141.969 182.511L143.383 181.097ZM134.112 163.92C146.103 163.92 154.907 166.733 160.846 172.046L163.513 169.066C156.583 162.865 146.675 159.92 134.112 159.92V163.92ZM160.855 172.055C166.805 177.309 169.958 185.475 169.958 196.972H173.958C173.958 184.763 170.592 175.317 163.503 169.057L160.855 172.055ZM169.958 196.972V201.29H173.958V196.972H169.958ZM171.958 199.29H121.666V203.29H171.958V199.29ZM119.666 201.29C119.666 206.368 120.775 210.558 123.326 213.518L126.356 210.906C124.674 208.955 123.666 205.864 123.666 201.29H119.666ZM123.352 213.547C126.068 216.577 130.144 217.895 135.128 217.895V213.895C130.799 213.895 128.017 212.758 126.33 210.877L123.352 213.547ZM135.128 217.895C139.574 217.895 143.264 216.972 145.748 214.705L143.051 211.751C141.64 213.04 139.149 213.895 135.128 213.895V217.895ZM145.716 214.733C148.228 212.536 149.447 209.593 149.447 206.116H145.447C145.447 208.566 144.635 210.364 143.082 211.723L145.716 214.733ZM147.447 208.116H171.958V204.116H147.447V208.116ZM169.958 206.116C169.958 213.652 167.136 219.388 161.498 223.558L163.877 226.774C170.6 221.8 173.958 214.836 173.958 206.116H169.958ZM161.498 223.558C155.803 227.771 147.279 230.024 135.636 230.024V234.024C147.7 234.024 157.21 231.705 163.877 226.774L161.498 223.558ZM135.636 230.024C123.479 230.024 114.346 227.212 107.966 221.856L105.394 224.92C112.731 231.079 122.902 234.024 135.636 234.024V230.024ZM107.977 221.866C101.693 216.512 98.3933 208.346 98.3933 196.972H94.3933C94.3933 209.135 97.9515 218.58 105.383 224.91L107.977 221.866ZM98.3933 196.972C98.3933 185.854 101.609 177.751 107.753 172.307L105.1 169.313C97.8667 175.722 94.3933 185.061 94.3933 196.972H98.3933ZM107.753 172.307C113.972 166.796 122.675 163.92 134.112 163.92V159.92C122.013 159.92 112.257 162.971 105.1 169.313L107.753 172.307ZM135.128 176.049C130.849 176.049 127.229 177.063 124.532 179.349C121.822 181.646 120.316 184.996 119.808 189.107L123.778 189.597C124.201 186.173 125.384 183.871 127.119 182.4C128.867 180.919 131.449 180.049 135.128 180.049V176.049ZM121.793 191.352H146.431V187.352H121.793V191.352ZM148.431 189.352C148.431 185.468 147.28 182.166 144.798 179.683L141.969 182.511C143.55 184.092 144.431 186.293 144.431 189.352H148.431ZM144.827 179.713C142.409 177.19 139.077 176.049 135.128 176.049V180.049C138.291 180.049 140.463 180.94 141.939 182.481L144.827 179.713ZM198.581 230.5L196.71 231.208L197.2 232.5H198.581V230.5ZM173.181 163.444V161.444H170.284L171.31 164.152L173.181 163.444ZM200.359 163.444L202.277 162.878L201.854 161.444H200.359V163.444ZM212.678 205.227L210.759 205.793L211.182 207.227H212.678V205.227ZM213.567 205.227V207.227H215.062L215.485 205.793L213.567 205.227ZM225.886 163.444V161.444H224.39L223.967 162.878L225.886 163.444ZM250.778 163.444L252.646 164.159L253.684 161.444H250.778V163.444ZM225.124 230.5V232.5H226.5L226.992 231.215L225.124 230.5ZM200.451 229.792L175.051 162.736L171.31 164.152L196.71 231.208L200.451 229.792ZM173.181 165.444H200.359V161.444H173.181V165.444ZM198.44 164.01L210.759 205.793L214.596 204.661L202.277 162.878L198.44 164.01ZM212.678 207.227H213.567V203.227H212.678V207.227ZM215.485 205.793L227.804 164.01L223.967 162.878L211.648 204.661L215.485 205.793ZM225.886 165.444H250.778V161.444H225.886V165.444ZM248.91 162.729L223.256 229.785L226.992 231.215L252.646 164.159L248.91 162.729ZM225.124 228.5H198.581V232.5H225.124V228.5ZM317.829 170.556L316.495 172.047L316.505 172.055L317.829 170.556ZM327.608 201.29V203.29H329.608V201.29H327.608ZM277.316 201.29V199.29H275.316V201.29H277.316ZM280.491 212.212L278.976 213.518L278.989 213.533L279.002 213.547L280.491 212.212ZM300.049 213.228L298.732 211.723L298.716 211.737L298.7 211.751L300.049 213.228ZM303.097 206.116V204.116H301.097V206.116H303.097ZM327.608 206.116H329.608V204.116H327.608V206.116ZM318.337 225.166L317.147 223.558L317.147 223.558L318.337 225.166ZM262.33 223.388L261.033 224.91L261.038 224.915L261.044 224.92L262.33 223.388ZM262.076 170.81L260.749 169.313L260.749 169.313L262.076 170.81ZM277.443 189.352L275.458 189.107L275.18 191.352H277.443V189.352ZM302.081 189.352V191.352H304.081V189.352H302.081ZM299.033 181.097L297.589 182.481L297.603 182.496L297.618 182.511L299.033 181.097ZM289.762 163.92C301.752 163.92 310.556 166.733 316.495 172.046L319.162 169.066C312.232 162.865 302.324 159.92 289.762 159.92V163.92ZM316.505 172.055C322.454 177.309 325.608 185.475 325.608 196.972H329.608C329.608 184.763 326.242 175.317 319.153 169.057L316.505 172.055ZM325.608 196.972V201.29H329.608V196.972H325.608ZM327.608 199.29H277.316V203.29H327.608V199.29ZM275.316 201.29C275.316 206.368 276.424 210.558 278.976 213.518L282.006 210.906C280.324 208.955 279.316 205.864 279.316 201.29H275.316ZM279.002 213.547C281.718 216.577 285.794 217.895 290.778 217.895V213.895C286.448 213.895 283.666 212.758 281.98 210.877L279.002 213.547ZM290.778 217.895C295.224 217.895 298.914 216.972 301.397 214.705L298.7 211.751C297.289 213.04 294.799 213.895 290.778 213.895V217.895ZM301.366 214.733C303.877 212.536 305.097 209.593 305.097 206.116H301.097C301.097 208.566 300.284 210.364 298.732 211.723L301.366 214.733ZM303.097 208.116H327.608V204.116H303.097V208.116ZM325.608 206.116C325.608 213.652 322.785 219.388 317.147 223.558L319.526 226.774C326.25 221.8 329.608 214.836 329.608 206.116H325.608ZM317.147 223.558C311.452 227.771 302.929 230.024 291.286 230.024V234.024C303.349 234.024 312.86 231.705 319.526 226.774L317.147 223.558ZM291.286 230.024C279.128 230.024 269.995 227.212 263.616 221.856L261.044 224.92C268.38 231.079 278.551 234.024 291.286 234.024V230.024ZM263.627 221.866C257.343 216.512 254.043 208.346 254.043 196.972H250.043C250.043 209.135 253.601 218.58 261.033 224.91L263.627 221.866ZM254.043 196.972C254.043 185.854 257.258 177.751 263.402 172.307L260.749 169.313C253.516 175.722 250.043 185.061 250.043 196.972H254.043ZM263.402 172.307C269.622 166.796 278.324 163.92 289.762 163.92V159.92C277.662 159.92 267.907 162.971 260.749 169.313L263.402 172.307ZM290.778 176.049C286.498 176.049 282.879 177.063 280.182 179.349C277.471 181.646 275.966 184.996 275.458 189.107L279.428 189.597C279.851 186.173 281.034 183.871 282.768 182.4C284.516 180.919 287.099 180.049 290.778 180.049V176.049ZM277.443 191.352H302.081V187.352H277.443V191.352ZM304.081 189.352C304.081 185.468 302.93 182.166 300.447 179.683L297.618 182.511C299.2 184.092 300.081 186.293 300.081 189.352H304.081ZM300.477 179.713C298.058 177.19 294.727 176.049 290.778 176.049V180.049C293.941 180.049 296.112 180.94 297.589 182.481L300.477 179.713ZM340.688 230.5H338.688V232.5H340.688V230.5ZM340.688 138.425V136.425H338.688V138.425H340.688ZM365.961 138.425H367.961V136.425H365.961V138.425ZM365.961 230.5V232.5H367.961V230.5H365.961ZM342.688 230.5V138.425H338.688V230.5H342.688ZM340.688 140.425H365.961V136.425H340.688V140.425ZM363.961 138.425V230.5H367.961V138.425H363.961ZM365.961 228.5H340.688V232.5H365.961V228.5ZM444.448 170.937L443.111 172.425L443.121 172.433L443.131 172.442L444.448 170.937ZM444.448 223.134L445.774 224.631L445.775 224.63L444.448 223.134ZM389.076 223.134L387.749 224.631L387.749 224.631L389.076 223.134ZM389.076 170.81L387.749 169.313L387.749 169.313L389.076 170.81ZM416.762 163.92C428.193 163.92 436.891 166.834 443.111 172.425L445.785 169.449C438.627 163.017 428.868 159.92 416.762 159.92V163.92ZM443.131 172.442C449.358 177.891 452.608 185.952 452.608 196.972H456.608C456.608 185.132 453.084 175.836 445.765 169.432L443.131 172.442ZM452.608 196.972C452.608 207.991 449.359 216.101 443.12 221.638L445.775 224.63C453.083 218.144 456.608 208.813 456.608 196.972H452.608ZM443.121 221.637C436.902 227.148 428.199 230.024 416.762 230.024V234.024C428.861 234.024 438.617 230.973 445.774 224.631L443.121 221.637ZM416.762 230.024C405.324 230.024 396.622 227.148 390.402 221.637L387.749 224.631C394.907 230.973 404.662 234.024 416.762 234.024V230.024ZM390.402 221.637C384.258 216.193 381.043 208.09 381.043 196.972H377.043C377.043 208.883 380.516 218.222 387.749 224.631L390.402 221.637ZM381.043 196.972C381.043 185.854 384.258 177.751 390.402 172.307L387.749 169.313C380.516 175.722 377.043 185.061 377.043 196.972H381.043ZM390.402 172.307C396.622 166.796 405.324 163.92 416.762 163.92V159.92C404.662 159.92 394.907 162.971 387.749 169.313L390.402 172.307ZM416.762 177.065C412.225 177.065 408.48 178.386 405.916 181.342C403.4 184.244 402.316 188.388 402.316 193.416H406.316C406.316 188.876 407.306 185.845 408.938 183.963C410.523 182.136 413.001 181.065 416.762 181.065V177.065ZM402.316 193.416V200.655H406.316V193.416H402.316ZM402.316 200.655C402.316 205.644 403.401 209.759 405.922 212.64C408.487 215.572 412.23 216.879 416.762 216.879V212.879C412.996 212.879 410.516 211.815 408.932 210.006C407.304 208.146 406.316 205.149 406.316 200.655H402.316ZM416.762 216.879C421.329 216.879 425.102 215.576 427.69 212.648C430.237 209.766 431.335 205.648 431.335 200.655H427.335C427.335 205.145 426.337 208.138 424.693 209.998C423.09 211.812 420.576 212.879 416.762 212.879V216.879ZM431.335 200.655V193.416H427.335V200.655H431.335ZM431.335 193.416C431.335 188.384 430.238 184.237 427.696 181.335C425.109 178.382 421.335 177.065 416.762 177.065V181.065C420.571 181.065 423.083 182.14 424.687 183.971C426.336 185.852 427.335 188.88 427.335 193.416H431.335ZM531.95 170.81L530.41 172.086L530.41 172.086L531.95 170.81ZM531.95 223.261L533.481 224.548L533.485 224.542L533.49 224.537L531.95 223.261ZM492.199 224.404L493.661 223.039L490.199 219.33V224.404H492.199ZM492.199 255.519V257.519H494.199V255.519H492.199ZM466.926 255.519H464.926V257.519H466.926V255.519ZM466.926 163.444V161.444H464.926V163.444H466.926ZM487.5 163.444L489.45 163.002L489.097 161.444H487.5V163.444ZM489.659 172.969L487.708 173.411L488.738 177.955L491.323 174.078L489.659 172.969ZM494.739 184.526L493.108 183.369L493.108 183.369L494.739 184.526ZM494.739 209.418L493.091 210.551L493.099 210.563L493.108 210.575L494.739 209.418ZM510.995 163.92C519.576 163.92 525.948 166.701 530.41 172.086L533.49 169.534C528.13 163.066 520.532 159.92 510.995 159.92V163.92ZM530.41 172.086C534.905 177.511 537.316 185.739 537.316 197.099H541.316C541.316 185.261 538.816 175.962 533.49 169.534L530.41 172.086ZM537.316 197.099C537.316 208.37 534.907 216.558 530.41 221.985L533.49 224.537C538.814 218.111 541.316 208.857 541.316 197.099H537.316ZM530.419 221.974C525.96 227.278 519.586 230.024 510.995 230.024V234.024C520.523 234.024 528.118 230.928 533.481 224.548L530.419 221.974ZM510.995 230.024C503.686 230.024 497.976 227.663 493.661 223.039L490.737 225.769C495.904 231.305 502.725 234.024 510.995 234.024V230.024ZM490.199 224.404V255.519H494.199V224.404H490.199ZM492.199 253.519H466.926V257.519H492.199V253.519ZM468.926 255.519V163.444H464.926V255.519H468.926ZM466.926 165.444H487.5V161.444H466.926V165.444ZM485.549 163.886L487.708 173.411L491.609 172.527L489.45 163.002L485.549 163.886ZM491.323 174.078C495.84 167.303 502.309 163.92 510.995 163.92V159.92C501.054 159.92 493.299 163.903 487.995 171.86L491.323 174.078ZM503.121 178.589C498.865 178.589 495.408 180.126 493.108 183.369L496.37 185.683C497.794 183.676 499.926 182.589 503.121 182.589V178.589ZM493.108 183.369C490.94 186.424 489.945 190.295 489.945 194.813H493.945C493.945 190.865 494.813 187.878 496.37 185.683L493.108 183.369ZM489.945 194.813V199.004H493.945V194.813H489.945ZM489.945 199.004C489.945 203.526 490.941 207.424 493.091 210.551L496.387 208.285C494.811 205.993 493.945 202.949 493.945 199.004H489.945ZM493.108 210.575C495.408 213.818 498.865 215.355 503.121 215.355V211.355C499.926 211.355 497.794 210.268 496.37 208.261L493.108 210.575ZM503.121 215.355C507.174 215.355 510.545 214.124 512.847 211.367C515.092 208.678 516.043 204.864 516.043 200.274H512.043C512.043 204.405 511.173 207.131 509.777 208.803C508.439 210.406 506.349 211.355 503.121 211.355V215.355ZM516.043 200.274V193.543H512.043V200.274H516.043ZM516.043 193.543C516.043 188.992 515.091 185.206 512.841 182.538C510.537 179.805 507.168 178.589 503.121 178.589V182.589C506.355 182.589 508.447 183.532 509.783 185.117C511.174 186.767 512.043 189.458 512.043 193.543H516.043ZM614.245 170.556L612.911 172.047L612.921 172.055L614.245 170.556ZM624.024 201.29V203.29H626.024V201.29H624.024ZM573.732 201.29V199.29H571.732V201.29H573.732ZM576.907 212.212L575.392 213.518L575.405 213.533L575.418 213.547L576.907 212.212ZM596.465 213.228L595.148 211.723L595.132 211.737L595.116 211.751L596.465 213.228ZM599.513 206.116V204.116H597.513V206.116H599.513ZM624.024 206.116H626.024V204.116H624.024V206.116ZM614.753 225.166L613.563 223.558L613.563 223.558L614.753 225.166ZM558.746 223.388L557.449 224.91L557.454 224.915L557.46 224.92L558.746 223.388ZM558.492 170.81L557.165 169.313L557.165 169.313L558.492 170.81ZM573.859 189.352L571.874 189.107L571.596 191.352H573.859V189.352ZM598.497 189.352V191.352H600.497V189.352H598.497ZM595.449 181.097L594.005 182.481L594.019 182.496L594.035 182.511L595.449 181.097ZM586.178 163.92C598.168 163.92 606.972 166.733 612.911 172.046L615.578 169.066C608.648 162.865 598.74 159.92 586.178 159.92V163.92ZM612.921 172.055C618.87 177.309 622.024 185.475 622.024 196.972H626.024C626.024 184.763 622.658 175.317 615.569 169.057L612.921 172.055ZM622.024 196.972V201.29H626.024V196.972H622.024ZM624.024 199.29H573.732V203.29H624.024V199.29ZM571.732 201.29C571.732 206.368 572.84 210.558 575.392 213.518L578.422 210.906C576.74 208.955 575.732 205.864 575.732 201.29H571.732ZM575.418 213.547C578.134 216.577 582.21 217.895 587.194 217.895V213.895C582.864 213.895 580.082 212.758 578.396 210.877L575.418 213.547ZM587.194 217.895C591.64 217.895 595.33 216.972 597.813 214.705L595.116 211.751C593.705 213.04 591.215 213.895 587.194 213.895V217.895ZM597.782 214.733C600.293 212.536 601.513 209.593 601.513 206.116H597.513C597.513 208.566 596.7 210.364 595.148 211.723L597.782 214.733ZM599.513 208.116H624.024V204.116H599.513V208.116ZM622.024 206.116C622.024 213.652 619.201 219.388 613.563 223.558L615.942 226.774C622.666 221.8 626.024 214.836 626.024 206.116H622.024ZM613.563 223.558C607.868 227.771 599.345 230.024 587.702 230.024V234.024C599.765 234.024 609.276 231.705 615.942 226.774L613.563 223.558ZM587.702 230.024C575.544 230.024 566.411 227.212 560.032 221.856L557.46 224.92C564.796 231.079 574.967 234.024 587.702 234.024V230.024ZM560.043 221.866C553.759 216.512 550.459 208.346 550.459 196.972H546.459C546.459 209.135 550.017 218.58 557.449 224.91L560.043 221.866ZM550.459 196.972C550.459 185.854 553.674 177.751 559.818 172.307L557.165 169.313C549.932 175.722 546.459 185.061 546.459 196.972H550.459ZM559.818 172.307C566.038 166.796 574.74 163.92 586.178 163.92V159.92C574.078 159.92 564.323 162.971 557.165 169.313L559.818 172.307ZM587.194 176.049C582.914 176.049 579.295 177.063 576.598 179.349C573.887 181.646 572.382 184.996 571.874 189.107L575.844 189.597C576.267 186.173 577.45 183.871 579.184 182.4C580.932 180.919 583.515 180.049 587.194 180.049V176.049ZM573.859 191.352H598.497V187.352H573.859V191.352ZM600.497 189.352C600.497 185.468 599.346 182.166 596.863 179.683L594.035 182.511C595.616 184.092 596.497 186.293 596.497 189.352H600.497ZM596.893 179.713C594.474 177.19 591.143 176.049 587.194 176.049V180.049C590.357 180.049 592.528 180.94 594.005 182.481L596.893 179.713ZM682.189 162.555L681.556 164.452L681.604 164.468L681.653 164.482L682.189 162.555ZM684.475 184.526V186.526H686.475V184.526H684.475ZM664.917 188.59L663.412 187.273L663.4 187.287L663.388 187.3L664.917 188.59ZM661.488 230.5V232.5H663.488V230.5H661.488ZM636.215 230.5H634.215V232.5H636.215V230.5ZM636.215 163.444V161.444H634.215V163.444H636.215ZM656.916 163.444L658.89 163.123L658.617 161.444H656.916V163.444ZM658.567 173.604L656.593 173.925L657.765 181.141L660.429 174.333L658.567 173.604ZM665.806 164.841L666.822 166.564L666.838 166.554L666.854 166.544L665.806 164.841ZM676.982 163.793C678.758 163.793 680.274 164.025 681.556 164.452L682.821 160.658C681.055 160.069 679.1 159.793 676.982 159.793V163.793ZM681.653 164.482C682.408 164.692 682.939 164.85 683.271 164.96C683.351 164.987 683.413 165.009 683.459 165.026C683.507 165.044 683.524 165.051 683.52 165.049C683.517 165.048 683.5 165.041 683.474 165.027C683.45 165.015 683.397 164.987 683.33 164.941C683.276 164.906 683.131 164.806 682.979 164.637C682.9 164.549 682.784 164.404 682.684 164.203C682.581 163.998 682.475 163.694 682.475 163.317H686.475C686.475 162.575 686.08 162.103 685.952 161.961C685.788 161.779 685.626 161.665 685.548 161.613C685.383 161.503 685.226 161.43 685.144 161.394C684.959 161.312 684.742 161.235 684.536 161.166C684.105 161.022 683.494 160.842 682.724 160.628L681.653 164.482ZM682.475 163.317V184.526H686.475V163.317H682.475ZM684.475 182.526H676.347V186.526H684.475V182.526ZM676.347 182.526C670.79 182.526 666.309 183.961 663.412 187.273L666.422 189.907C668.265 187.8 671.404 186.526 676.347 186.526V182.526ZM663.388 187.3C660.677 190.514 659.488 195.078 659.488 200.655H663.488C663.488 195.564 664.585 192.085 666.445 189.88L663.388 187.3ZM659.488 200.655V230.5H663.488V200.655H659.488ZM661.488 228.5H636.215V232.5H661.488V228.5ZM638.215 230.5V163.444H634.215V230.5H638.215ZM636.215 165.444H656.916V161.444H636.215V165.444ZM654.942 163.765L656.593 173.925L660.541 173.283L658.89 163.123L654.942 163.765ZM660.429 174.333C661.806 170.814 663.941 168.263 666.822 166.564L664.79 163.118C661.067 165.314 658.376 168.604 656.704 172.875L660.429 174.333ZM666.854 166.544C669.818 164.72 673.176 163.793 676.982 163.793V159.793C672.49 159.793 668.397 160.898 664.758 163.138L666.854 166.544Z" fill="url(#paint1_linear_56_75)" mask="url(#path-1-inside-1_56_75)"/>
<defs>
<linearGradient id="paint0_linear_56_75" x1="712" y1="119.5" x2="-34" y2="119.5" gradientUnits="userSpaceOnUse">
<stop stop-color="#DBFF00"/>
<stop offset="1" stop-color="#F5562A"/>
</linearGradient>
<linearGradient id="paint1_linear_56_75" x1="-303" y1="258" x2="816.5" y2="-18.0001" gradientUnits="userSpaceOnUse">
<stop offset="0.012543" stop-color="#DBFF00"/>
<stop offset="1" stop-color="white"/>
</linearGradient>
</defs>
</svg>
